# xmcd CD database file
#
# Track frame offsets:
#	150
#	18165
#	38689
#	58447
#
# Disc length: 1017 seconds
#
# Revision: 0
# Processed by: cddbd v1.5.1PL0 Copyright (c) Steve Scherf et al.
# Submitted via: CDex 1.51
#
DISCID=2c03f704
DTITLE=Kuraki Mai - Ω₯μνͺΨΚ­ͺ±ͺλΞι (Single)
DYEAR=2004
DGENRE=Blues
TTITLE0=Ω₯μνͺΨΚ­ͺ±ͺλΞι
TTITLE1=Lover Boy
TTITLE2=δρͺςͺβͺΓͺΘ
TTITLE3=Ω₯μνͺΨΚ­ͺ±ͺλΞι (Instrumental)
EXTD=YEAR: 2004
EXTT0=
EXTT1=
EXTT2=
EXTT3=
PLAYORDER=
